<svg xmlns="http://www.w3.org/2000/svg" viewBox="0 0 40 79.8"><defs><style>.cls-1{fill:#fff}</style></defs><title>Risorsa 1</title><g id="Livello_2" data-name="Livello 2"><path class="cls-1" d="M39.1 60.4c-6.2-5.5-10.9-15.9-10.9-24.1v-1.1h9.4v-6.5l-9.4-2.4a33.67 33.67 0 0 1 3.3-11.2l1.7-3.4h-8A7 7 0 0 0 20 0a7.09 7.09 0 0 0-7 7 7 7 0 0 0 1.8 4.7h-8l1.7 3.4a31.48 31.48 0 0 1 3.3 11.2l-9.4 2.4v6.5h9.4v1.2c0 8.2-4.7 18.5-11 24.1l-.8.6v18.7h40V61.1z" id="Livello_1-2" data-name="Livello 1"/></g></svg>