<svg xmlns="http://www.w3.org/2000/svg" viewBox="0 0 57.41 51.91"><defs><style>.cls-1{fill:#fff}</style></defs><title>Risorsa 3</title><g id="Livello_2" data-name="Livello 2"><path class="cls-1" d="M56.9.37A1.49 1.49 0 0 0 55.72 0l-36 4.77a1.5 1.5 0 0 0-1.3 1.49v37.4c0 3.09-5 5.25-9.51 5.25a8.94 8.94 0 0 1-4.39-1A2.61 2.61 0 0 1 3 45.55a4.14 4.14 0 0 1 1.32-3.19c2.35-2.19 7.36-2.37 9.1-2.26a1.5 1.5 0 0 0 .2-3c-.31 0-7.56-.48-11.35 3.05A7.08 7.08 0 0 0 0 45.55a5.63 5.63 0 0 0 3 5 11.76 11.76 0 0 0 5.91 1.37c6 0 12.51-3.15 12.51-8.25v-24l33-4.38v23.6c0 3.09-5 5.24-9.51 5.24a9 9 0 0 1-4.39-1A2.61 2.61 0 0 1 39 40.78a4.14 4.14 0 0 1 1.32-3.19c2.35-2.19 7.36-2.37 9.09-2.26a1.5 1.5 0 0 0 .21-3c-.31 0-7.56-.48-11.34 3.06A7.08 7.08 0 0 0 36 40.78a5.64 5.64 0 0 0 3 5 11.76 11.76 0 0 0 5.91 1.37c6 0 12.51-3.15 12.51-8.24V1.5A1.48 1.48 0 0 0 56.9.37zM21.38 16.6v-9l33-4.37v9z" id="Livello_1-2" data-name="Livello 1"/></g></svg>